<mxfile host="app.diagrams.net" modified="2023-07-26T05:47:01.287Z" agent="Mozilla/5.0 (Macintosh; Intel Mac OS X 10_15_7) AppleWebKit/537.36 (KHTML, like Gecko) Chrome/114.0.0.0 Safari/537.36" etag="8HK0Re-l5xPNotBRDRPm" version="21.6.3" type="github">
  <diagram name="페이지-1" id="RiDbr1scga41Rpf_Axvq">
    <mxGraphModel dx="1195" dy="690" grid="1" gridSize="10" guides="1" tooltips="1" connect="1" arrows="1" fold="1" page="1" pageScale="1" pageWidth="827" pageHeight="1169" math="0" shadow="0">
      <root>
        <mxCell id="0" />
        <mxCell id="1" parent="0" />
        <mxCell id="7NgcQbeyCjX-3y8TtTdY-24" value="ap-northeast-2a" style="fillColor=none;strokeColor=#147EBA;dashed=1;verticalAlign=top;fontStyle=0;fontColor=#147EBA;whiteSpace=wrap;html=1;" vertex="1" parent="1">
          <mxGeometry x="210" y="1100" width="162" height="160" as="geometry" />
        </mxCell>
        <mxCell id="7NgcQbeyCjX-3y8TtTdY-1" value="" style="sketch=0;points=[[0,0,0],[0.25,0,0],[0.5,0,0],[0.75,0,0],[1,0,0],[0,1,0],[0.25,1,0],[0.5,1,0],[0.75,1,0],[1,1,0],[0,0.25,0],[0,0.5,0],[0,0.75,0],[1,0.25,0],[1,0.5,0],[1,0.75,0]];outlineConnect=0;fontColor=#232F3E;gradientColor=#F78E04;gradientDirection=north;fillColor=#D05C17;strokeColor=#ffffff;dashed=0;verticalLabelPosition=bottom;verticalAlign=top;align=center;html=1;fontSize=12;fontStyle=0;aspect=fixed;shape=mxgraph.aws4.resourceIcon;resIcon=mxgraph.aws4.ec2;" vertex="1" parent="1">
          <mxGeometry x="151" y="176" width="78" height="78" as="geometry" />
        </mxCell>
        <mxCell id="7NgcQbeyCjX-3y8TtTdY-3" value="" style="endArrow=classic;html=1;rounded=0;" edge="1" parent="1">
          <mxGeometry width="50" height="50" relative="1" as="geometry">
            <mxPoint x="281" y="214.5" as="sourcePoint" />
            <mxPoint x="431" y="214.5" as="targetPoint" />
          </mxGeometry>
        </mxCell>
        <mxCell id="7NgcQbeyCjX-3y8TtTdY-4" value="" style="sketch=0;points=[[0,0,0],[0.25,0,0],[0.5,0,0],[0.75,0,0],[1,0,0],[0,1,0],[0.25,1,0],[0.5,1,0],[0.75,1,0],[1,1,0],[0,0.25,0],[0,0.5,0],[0,0.75,0],[1,0.25,0],[1,0.5,0],[1,0.75,0]];outlineConnect=0;fontColor=#232F3E;gradientColor=#F78E04;gradientDirection=north;fillColor=#D05C17;strokeColor=#ffffff;dashed=0;verticalLabelPosition=bottom;verticalAlign=top;align=center;html=1;fontSize=12;fontStyle=0;aspect=fixed;shape=mxgraph.aws4.resourceIcon;resIcon=mxgraph.aws4.ec2;" vertex="1" parent="1">
          <mxGeometry x="514" y="130" width="170" height="170" as="geometry" />
        </mxCell>
        <mxCell id="7NgcQbeyCjX-3y8TtTdY-5" value="t4g small&lt;br&gt;&lt;font style=&quot;font-size: 18px; font-weight: normal;&quot;&gt;2CPU &lt;br&gt;2GB Memory&lt;/font&gt;" style="text;strokeColor=none;fillColor=none;html=1;fontSize=24;fontStyle=1;verticalAlign=middle;align=center;" vertex="1" parent="1">
          <mxGeometry x="140" y="334" width="100" height="40" as="geometry" />
        </mxCell>
        <mxCell id="7NgcQbeyCjX-3y8TtTdY-6" value="t4g xlarge&lt;br&gt;&lt;span style=&quot;font-weight: normal;&quot;&gt;&lt;font style=&quot;font-size: 18px;&quot;&gt;4CPU&lt;/font&gt;&lt;/span&gt;&lt;br style=&quot;--tw-border-spacing-x: 0; --tw-border-spacing-y: 0; --tw-translate-x: 0; --tw-translate-y: 0; --tw-rotate: 0; --tw-skew-x: 0; --tw-skew-y: 0; --tw-scale-x: 1; --tw-scale-y: 1; --tw-pan-x: ; --tw-pan-y: ; --tw-pinch-zoom: ; --tw-scroll-snap-strictness: proximity; --tw-gradient-from-position: ; --tw-gradient-via-position: ; --tw-gradient-to-position: ; --tw-ordinal: ; --tw-slashed-zero: ; --tw-numeric-figure: ; --tw-numeric-spacing: ; --tw-numeric-fraction: ; --tw-ring-inset: ; --tw-ring-offset-width: 0px; --tw-ring-offset-color: #fff; --tw-ring-color: rgb(59 130 246 / .5); --tw-ring-offset-shadow: 0 0 #0000; --tw-ring-shadow: 0 0 #0000; --tw-shadow: 0 0 #0000; --tw-shadow-colored: 0 0 #0000; --tw-blur: ; --tw-brightness: ; --tw-contrast: ; --tw-grayscale: ; --tw-hue-rotate: ; --tw-invert: ; --tw-saturate: ; --tw-sepia: ; --tw-drop-shadow: ; --tw-backdrop-blur: ; --tw-backdrop-brightness: ; --tw-backdrop-contrast: ; --tw-backdrop-grayscale: ; --tw-backdrop-hue-rotate: ; --tw-backdrop-invert: ; --tw-backdrop-opacity: ; --tw-backdrop-saturate: ; --tw-backdrop-sepia: ; border-color: var(--border-color); font-size: 18px; font-weight: 400;&quot;&gt;&lt;span style=&quot;font-size: 18px; font-weight: 400;&quot;&gt;16GB Memory&lt;/span&gt;" style="text;strokeColor=none;fillColor=none;html=1;fontSize=24;fontStyle=1;verticalAlign=middle;align=center;" vertex="1" parent="1">
          <mxGeometry x="549" y="334" width="100" height="40" as="geometry" />
        </mxCell>
        <mxCell id="7NgcQbeyCjX-3y8TtTdY-7" value="" style="sketch=0;points=[[0,0,0],[0.25,0,0],[0.5,0,0],[0.75,0,0],[1,0,0],[0,1,0],[0.25,1,0],[0.5,1,0],[0.75,1,0],[1,1,0],[0,0.25,0],[0,0.5,0],[0,0.75,0],[1,0.25,0],[1,0.5,0],[1,0.75,0]];outlineConnect=0;fontColor=#232F3E;gradientColor=#F78E04;gradientDirection=north;fillColor=#D05C17;strokeColor=#ffffff;dashed=0;verticalLabelPosition=bottom;verticalAlign=top;align=center;html=1;fontSize=12;fontStyle=0;aspect=fixed;shape=mxgraph.aws4.resourceIcon;resIcon=mxgraph.aws4.ec2;" vertex="1" parent="1">
          <mxGeometry x="151" y="550" width="78" height="78" as="geometry" />
        </mxCell>
        <mxCell id="7NgcQbeyCjX-3y8TtTdY-8" value="" style="endArrow=classic;html=1;rounded=0;" edge="1" parent="1">
          <mxGeometry width="50" height="50" relative="1" as="geometry">
            <mxPoint x="281" y="588.5" as="sourcePoint" />
            <mxPoint x="431" y="588.5" as="targetPoint" />
          </mxGeometry>
        </mxCell>
        <mxCell id="7NgcQbeyCjX-3y8TtTdY-10" value="t4g small&lt;br&gt;&lt;span style=&quot;font-weight: normal;&quot;&gt;&lt;font style=&quot;font-size: 18px;&quot;&gt;2CPU&lt;/font&gt;&lt;/span&gt;&lt;br style=&quot;--tw-border-spacing-x: 0; --tw-border-spacing-y: 0; --tw-translate-x: 0; --tw-translate-y: 0; --tw-rotate: 0; --tw-skew-x: 0; --tw-skew-y: 0; --tw-scale-x: 1; --tw-scale-y: 1; --tw-pan-x: ; --tw-pan-y: ; --tw-pinch-zoom: ; --tw-scroll-snap-strictness: proximity; --tw-gradient-from-position: ; --tw-gradient-via-position: ; --tw-gradient-to-position: ; --tw-ordinal: ; --tw-slashed-zero: ; --tw-numeric-figure: ; --tw-numeric-spacing: ; --tw-numeric-fraction: ; --tw-ring-inset: ; --tw-ring-offset-width: 0px; --tw-ring-offset-color: #fff; --tw-ring-color: rgb(59 130 246 / .5); --tw-ring-offset-shadow: 0 0 #0000; --tw-ring-shadow: 0 0 #0000; --tw-shadow: 0 0 #0000; --tw-shadow-colored: 0 0 #0000; --tw-blur: ; --tw-brightness: ; --tw-contrast: ; --tw-grayscale: ; --tw-hue-rotate: ; --tw-invert: ; --tw-saturate: ; --tw-sepia: ; --tw-drop-shadow: ; --tw-backdrop-blur: ; --tw-backdrop-brightness: ; --tw-backdrop-contrast: ; --tw-backdrop-grayscale: ; --tw-backdrop-hue-rotate: ; --tw-backdrop-invert: ; --tw-backdrop-opacity: ; --tw-backdrop-saturate: ; --tw-backdrop-sepia: ; border-color: var(--border-color); font-size: 18px; font-weight: 400;&quot;&gt;&lt;span style=&quot;font-size: 18px; font-weight: 400;&quot;&gt;2GB Memory&lt;/span&gt;" style="text;strokeColor=none;fillColor=none;html=1;fontSize=24;fontStyle=1;verticalAlign=middle;align=center;" vertex="1" parent="1">
          <mxGeometry x="140" y="700" width="100" height="40" as="geometry" />
        </mxCell>
        <mxCell id="7NgcQbeyCjX-3y8TtTdY-12" value="" style="sketch=0;points=[[0,0,0],[0.25,0,0],[0.5,0,0],[0.75,0,0],[1,0,0],[0,1,0],[0.25,1,0],[0.5,1,0],[0.75,1,0],[1,1,0],[0,0.25,0],[0,0.5,0],[0,0.75,0],[1,0.25,0],[1,0.5,0],[1,0.75,0]];outlineConnect=0;fontColor=#232F3E;gradientColor=#F78E04;gradientDirection=north;fillColor=#D05C17;strokeColor=#ffffff;dashed=0;verticalLabelPosition=bottom;verticalAlign=top;align=center;html=1;fontSize=12;fontStyle=0;aspect=fixed;shape=mxgraph.aws4.resourceIcon;resIcon=mxgraph.aws4.ec2;" vertex="1" parent="1">
          <mxGeometry x="470" y="550" width="78" height="78" as="geometry" />
        </mxCell>
        <mxCell id="7NgcQbeyCjX-3y8TtTdY-13" value="" style="sketch=0;points=[[0,0,0],[0.25,0,0],[0.5,0,0],[0.75,0,0],[1,0,0],[0,1,0],[0.25,1,0],[0.5,1,0],[0.75,1,0],[1,1,0],[0,0.25,0],[0,0.5,0],[0,0.75,0],[1,0.25,0],[1,0.5,0],[1,0.75,0]];outlineConnect=0;fontColor=#232F3E;gradientColor=#F78E04;gradientDirection=north;fillColor=#D05C17;strokeColor=#ffffff;dashed=0;verticalLabelPosition=bottom;verticalAlign=top;align=center;html=1;fontSize=12;fontStyle=0;aspect=fixed;shape=mxgraph.aws4.resourceIcon;resIcon=mxgraph.aws4.ec2;" vertex="1" parent="1">
          <mxGeometry x="560" y="550" width="78" height="78" as="geometry" />
        </mxCell>
        <mxCell id="7NgcQbeyCjX-3y8TtTdY-14" value="" style="sketch=0;points=[[0,0,0],[0.25,0,0],[0.5,0,0],[0.75,0,0],[1,0,0],[0,1,0],[0.25,1,0],[0.5,1,0],[0.75,1,0],[1,1,0],[0,0.25,0],[0,0.5,0],[0,0.75,0],[1,0.25,0],[1,0.5,0],[1,0.75,0]];outlineConnect=0;fontColor=#232F3E;gradientColor=#F78E04;gradientDirection=north;fillColor=#D05C17;strokeColor=#ffffff;dashed=0;verticalLabelPosition=bottom;verticalAlign=top;align=center;html=1;fontSize=12;fontStyle=0;aspect=fixed;shape=mxgraph.aws4.resourceIcon;resIcon=mxgraph.aws4.ec2;" vertex="1" parent="1">
          <mxGeometry x="650" y="550" width="78" height="78" as="geometry" />
        </mxCell>
        <mxCell id="7NgcQbeyCjX-3y8TtTdY-15" value="t4g small X 3&lt;br style=&quot;font-size: 18px;&quot;&gt;&lt;font style=&quot;--tw-border-spacing-x: 0; --tw-border-spacing-y: 0; --tw-translate-x: 0; --tw-translate-y: 0; --tw-rotate: 0; --tw-skew-x: 0; --tw-skew-y: 0; --tw-scale-x: 1; --tw-scale-y: 1; --tw-pan-x: ; --tw-pan-y: ; --tw-pinch-zoom: ; --tw-scroll-snap-strictness: proximity; --tw-gradient-from-position: ; --tw-gradient-via-position: ; --tw-gradient-to-position: ; --tw-ordinal: ; --tw-slashed-zero: ; --tw-numeric-figure: ; --tw-numeric-spacing: ; --tw-numeric-fraction: ; --tw-ring-inset: ; --tw-ring-offset-width: 0px; --tw-ring-offset-color: #fff; --tw-ring-color: rgb(59 130 246 / .5); --tw-ring-offset-shadow: 0 0 #0000; --tw-ring-shadow: 0 0 #0000; --tw-shadow: 0 0 #0000; --tw-shadow-colored: 0 0 #0000; --tw-blur: ; --tw-brightness: ; --tw-contrast: ; --tw-grayscale: ; --tw-hue-rotate: ; --tw-invert: ; --tw-saturate: ; --tw-sepia: ; --tw-drop-shadow: ; --tw-backdrop-blur: ; --tw-backdrop-brightness: ; --tw-backdrop-contrast: ; --tw-backdrop-grayscale: ; --tw-backdrop-hue-rotate: ; --tw-backdrop-invert: ; --tw-backdrop-opacity: ; --tw-backdrop-saturate: ; --tw-backdrop-sepia: ; border-color: var(--border-color); font-size: 18px; font-weight: normal;&quot;&gt;2CPU X 3&lt;/font&gt;&lt;br style=&quot;--tw-border-spacing-x: 0; --tw-border-spacing-y: 0; --tw-translate-x: 0; --tw-translate-y: 0; --tw-rotate: 0; --tw-skew-x: 0; --tw-skew-y: 0; --tw-scale-x: 1; --tw-scale-y: 1; --tw-pan-x: ; --tw-pan-y: ; --tw-pinch-zoom: ; --tw-scroll-snap-strictness: proximity; --tw-gradient-from-position: ; --tw-gradient-via-position: ; --tw-gradient-to-position: ; --tw-ordinal: ; --tw-slashed-zero: ; --tw-numeric-figure: ; --tw-numeric-spacing: ; --tw-numeric-fraction: ; --tw-ring-inset: ; --tw-ring-offset-width: 0px; --tw-ring-offset-color: #fff; --tw-ring-color: rgb(59 130 246 / .5); --tw-ring-offset-shadow: 0 0 #0000; --tw-ring-shadow: 0 0 #0000; --tw-shadow: 0 0 #0000; --tw-shadow-colored: 0 0 #0000; --tw-blur: ; --tw-brightness: ; --tw-contrast: ; --tw-grayscale: ; --tw-hue-rotate: ; --tw-invert: ; --tw-saturate: ; --tw-sepia: ; --tw-drop-shadow: ; --tw-backdrop-blur: ; --tw-backdrop-brightness: ; --tw-backdrop-contrast: ; --tw-backdrop-grayscale: ; --tw-backdrop-hue-rotate: ; --tw-backdrop-invert: ; --tw-backdrop-opacity: ; --tw-backdrop-saturate: ; --tw-backdrop-sepia: ; border-color: var(--border-color); font-size: 18px; font-weight: 400;&quot;&gt;&lt;span style=&quot;--tw-border-spacing-x: 0; --tw-border-spacing-y: 0; --tw-translate-x: 0; --tw-translate-y: 0; --tw-rotate: 0; --tw-skew-x: 0; --tw-skew-y: 0; --tw-scale-x: 1; --tw-scale-y: 1; --tw-pan-x: ; --tw-pan-y: ; --tw-pinch-zoom: ; --tw-scroll-snap-strictness: proximity; --tw-gradient-from-position: ; --tw-gradient-via-position: ; --tw-gradient-to-position: ; --tw-ordinal: ; --tw-slashed-zero: ; --tw-numeric-figure: ; --tw-numeric-spacing: ; --tw-numeric-fraction: ; --tw-ring-inset: ; --tw-ring-offset-width: 0px; --tw-ring-offset-color: #fff; --tw-ring-color: rgb(59 130 246 / .5); --tw-ring-offset-shadow: 0 0 #0000; --tw-ring-shadow: 0 0 #0000; --tw-shadow: 0 0 #0000; --tw-shadow-colored: 0 0 #0000; --tw-blur: ; --tw-brightness: ; --tw-contrast: ; --tw-grayscale: ; --tw-hue-rotate: ; --tw-invert: ; --tw-saturate: ; --tw-sepia: ; --tw-drop-shadow: ; --tw-backdrop-blur: ; --tw-backdrop-brightness: ; --tw-backdrop-contrast: ; --tw-backdrop-grayscale: ; --tw-backdrop-hue-rotate: ; --tw-backdrop-invert: ; --tw-backdrop-opacity: ; --tw-backdrop-saturate: ; --tw-backdrop-sepia: ; border-color: var(--border-color); font-size: 18px; font-weight: 400;&quot;&gt;2GB Memory&amp;nbsp;&lt;/span&gt;&lt;span style=&quot;font-weight: normal; font-size: 18px;&quot;&gt;X 3&lt;/span&gt;" style="text;strokeColor=none;fillColor=none;html=1;fontSize=24;fontStyle=1;verticalAlign=middle;align=center;" vertex="1" parent="1">
          <mxGeometry x="549" y="700" width="100" height="40" as="geometry" />
        </mxCell>
        <mxCell id="7NgcQbeyCjX-3y8TtTdY-20" value="" style="sketch=0;points=[[0,0,0],[0.25,0,0],[0.5,0,0],[0.75,0,0],[1,0,0],[0,1,0],[0.25,1,0],[0.5,1,0],[0.75,1,0],[1,1,0],[0,0.25,0],[0,0.5,0],[0,0.75,0],[1,0.25,0],[1,0.5,0],[1,0.75,0]];outlineConnect=0;fontColor=#232F3E;gradientColor=#F78E04;gradientDirection=north;fillColor=#D05C17;strokeColor=#ffffff;dashed=0;verticalLabelPosition=bottom;verticalAlign=top;align=center;html=1;fontSize=12;fontStyle=0;aspect=fixed;shape=mxgraph.aws4.resourceIcon;resIcon=mxgraph.aws4.ec2;" vertex="1" parent="1">
          <mxGeometry x="252" y="1141" width="78" height="78" as="geometry" />
        </mxCell>
        <mxCell id="7NgcQbeyCjX-3y8TtTdY-25" value="ap-northeast-2b" style="fillColor=none;strokeColor=#147EBA;dashed=1;verticalAlign=top;fontStyle=0;fontColor=#147EBA;whiteSpace=wrap;html=1;" vertex="1" parent="1">
          <mxGeometry x="412" y="1100" width="162" height="160" as="geometry" />
        </mxCell>
        <mxCell id="7NgcQbeyCjX-3y8TtTdY-26" value="" style="sketch=0;points=[[0,0,0],[0.25,0,0],[0.5,0,0],[0.75,0,0],[1,0,0],[0,1,0],[0.25,1,0],[0.5,1,0],[0.75,1,0],[1,1,0],[0,0.25,0],[0,0.5,0],[0,0.75,0],[1,0.25,0],[1,0.5,0],[1,0.75,0]];outlineConnect=0;fontColor=#232F3E;gradientColor=#F78E04;gradientDirection=north;fillColor=#D05C17;strokeColor=#ffffff;dashed=0;verticalLabelPosition=bottom;verticalAlign=top;align=center;html=1;fontSize=12;fontStyle=0;aspect=fixed;shape=mxgraph.aws4.resourceIcon;resIcon=mxgraph.aws4.ec2;" vertex="1" parent="1">
          <mxGeometry x="454" y="1141" width="78" height="78" as="geometry" />
        </mxCell>
        <mxCell id="7NgcQbeyCjX-3y8TtTdY-27" value="" style="shape=mxgraph.mockup.markup.redX;fillColor=#ff0000;html=1;shadow=0;whiteSpace=wrap;strokeColor=none;" vertex="1" parent="1">
          <mxGeometry x="236" y="1130" width="110" height="100" as="geometry" />
        </mxCell>
        <mxCell id="7NgcQbeyCjX-3y8TtTdY-30" style="edgeStyle=orthogonalEdgeStyle;rounded=0;orthogonalLoop=1;jettySize=auto;html=1;" edge="1" parent="1" source="7NgcQbeyCjX-3y8TtTdY-28" target="7NgcQbeyCjX-3y8TtTdY-25">
          <mxGeometry relative="1" as="geometry" />
        </mxCell>
        <mxCell id="7NgcQbeyCjX-3y8TtTdY-28" value="" style="sketch=0;outlineConnect=0;fontColor=#232F3E;gradientColor=none;fillColor=#232F3D;strokeColor=none;dashed=0;verticalLabelPosition=bottom;verticalAlign=top;align=center;html=1;fontSize=12;fontStyle=0;aspect=fixed;pointerEvents=1;shape=mxgraph.aws4.user;" vertex="1" parent="1">
          <mxGeometry x="350" y="940" width="78" height="78" as="geometry" />
        </mxCell>
        <mxCell id="7NgcQbeyCjX-3y8TtTdY-34" value="Custom AMI" style="text;html=1;strokeColor=none;fillColor=none;align=center;verticalAlign=middle;whiteSpace=wrap;rounded=0;fontStyle=1;fontSize=18;" vertex="1" parent="1">
          <mxGeometry x="338" y="1586" width="130" height="30" as="geometry" />
        </mxCell>
        <mxCell id="7NgcQbeyCjX-3y8TtTdY-39" value="" style="rounded=1;whiteSpace=wrap;html=1;absoluteArcSize=1;arcSize=14;strokeWidth=2;" vertex="1" parent="1">
          <mxGeometry x="234" y="1390" width="310" height="190" as="geometry" />
        </mxCell>
        <mxCell id="7NgcQbeyCjX-3y8TtTdY-41" value="" style="shape=image;verticalLabelPosition=bottom;labelBackgroundColor=default;verticalAlign=top;aspect=fixed;imageAspect=0;image=data:image/png,iVBORw0KGgoAAAANSUhEUgAAAR8AAACwCAMAAAABtJrwAAABHVBMVEX////rLS///v8AdL3///38//////zqLi3rKCz7+frtz8/nGBrjSkv8/v////v//f747e4Aa7rkHyPltrcAcr0Ab7wAa7voLi8AdLvrISIAb7oAaLvjhIToxMPqLTHrJSftPT+Uu9rnAAD71NOxzebt9PafxeTpb2759PTnfH3w3t3qDhLsGCDokpHklJXiUlPf7PLnoZ52rNbP3+yMsdO90uJSnNI+i8rZ5+/z2tTtwLztXl7nZWHpMzjnP0LqtbHoenfojo3lb3HlWl/prLDtgHvqUlbu3dTy3ODpn6DIYWK8amjViI/5urrpSElLjcNonM2Ft96ow9j6yck3isUug8b1g39qqNgAYrxUn9Szz9yStNZFj8t4pcnF3/G6LEylAAAX90lEQVR4nO1dC0Pa2LbehL2TYEgAJZCAJqU1iAQr8rBofdTH9NR77why4HR6Wvv/f8Zda+/wBm0dHUvNN9NWAsHkY73X2htCQoQIESJEiBAhfgJJJtHnvoZfGWsH7Lkv4ZdGOR7ycxdi2iFhJFSxBaDsZFeSnvsqfl1Q8t4/YFR/7uv4VUHJkb/DEqF+LcRR5YKxkJ+FeO8ey6ELWwh24mrJUH4WIqYqWjn07wtR9iMhP3fg1Fe0JAkN0CJsuRElRsIIcR50mSWzETeeYInnvpRfEmB19rSIvc300P7MQ4LFrt2IthbGz4tw6mcVN0loyM9clBwlYm+FzmsRPqwqqn343Ffxy+JQcxTlOhSfeZAMUj52IxH/NORnHigpxW0l614zFgaH88Deu9mIar8hYfI1C0rYlqZmVXud0LC4MQOZGVuVrBJxr0vPfSm/JkoXWlZ1VHvluS/k10QSTLOSVfy90PZMQmdgbtjBtR3JOmple9r0SDqkqvQFVzsSTCdsw4W4R1G1LcaM6efBr9HEy42IKNDz1o8g7IuSbNApUWGllY3Si60GSRgVbvsRJZt13Di4LonPtoCzl3gGX1rZPvr3i3X33LSU47aQnutRU0dKEMYIK58d+3uxZ73EZ0UClOvQdRVgR7HjoEVs+ASIzun716+3S4ROW6SXA3BcO5qqOCg9RyV4NKwasvLOseZfHzKA9DKNMyMGSW5pqFpOBD0XGiMm8finvO7atn1WImCF6AuNiBIyKb/SVORHeX02dOyUkeS2a6vayQsfs2MMTE8kC/S47ilYGT7xA+yUdnzNcbUzhg9eKkBl2NWqm1WUiOKerBCIesCZAR/66StbydrHG+wlV+gxpdjWHCBHUSq7SZE+UIiVwSCpEUU7Sr5QoxMAkooPPrAD2lX5MOglS4ydOqvAGOqW/nIzLkTsXHMcVcmqwMVwVsw4811HUSun5MVGzBxUYucaGmbgYocRkXFRVtrSIFJU1UMiS9IL1i9JZ9u+wv165e3ARRlYIFMiWXf1zWwO/7Igsz0/ksXAR1sfKZK3q0UcxbVXiCG/3HIP0sE2bFdB04x9ZBYcZUeVbESJaKBcWDJ75st8NmAQWDpxuXKpJ8ngINBx5QM7ir3Dpus/Lwxgm9c1hRtnbWNwUCIrNsSKEfVjjL3syV7QnH/5Ck+6KkPjQ4kRX81i72uDGNJLLRUKJNiOHYmgrBwnSUAFZYc8T3U/ouy8WNuDgCQrzqUnq+0MqWDkPbdIqzvPe3G/ACQpuYq2x1H9sRHeMq/PK/7GXae+CDDySVTE3N0xRbr0Hc7Pyou2zQIrmoicr8aO/cHVywnlB3L0A9Sl7JhzB1y4ooNx+WzX9atAIkmRefnl0UEWd0W2ehTql87iahbd1zg/u0FArZTZ3xgMH0TedInXbkg6gfgnqzjj/JAt3gJTI/YZ72A8ELrBkhzLPEHEwJkrjqL6b8YOvsXCTwTyU7f8NxbmUraiKZD42vHlrY9QiZJd24mo/trY0Q0xn+Ao7nvKHsyPDr4ReXbjy92SPtQiqoJjhoMOBS0dc6ONFaHTh+cXVMQOirrk/LAtO5t1j0cNnAT7YAf8KEr5znPvwm/DT9l1nQgEyyNXJYJGvDn34uH25zfhh7C3mqPY50NNojqIFFgfEVjvPHTtzu/Cj8SMj66jrH4aEgRRte3wMQ4lq66ukIfFQL8LP4AyBDz2h2Goo8tkXbgwNfvw9QW/Cz8JMMhr4Im1wagzlQyJHqs8BoK//cuH1ed/F34IhnJ7muLG9bHZpxUbnJew0dePxk8CpxkZThFB5peAV0i8b011PlaUmFBkvBQ8Kg2vCUJVyseScJALp5Pw1bqs86Et6SmbUAnGtjVF24MbGBxil1rW4aVFVfv0oDed5Udi4iYYB+Epmkx4FZxzMLULkxQcHEKW8ZMaPxsphB+ZJD/pGiPdkNhRRan8azSRKbHtCjfREUV72PrB+fpVWrk8O7/Y3d09Wj+F9Jd/INQgB284xqMtkDBx8E1s8IbE+LS2858jOPtiey+o3ukrb5LJRJmSp9yhKMFI7MKGTAA/Yfy9DET4whYKVnlYHWiKHxysLl/FV33Ndl1XdV3bf31xiJqBv3HntQ94HR9pCZVYUuMH/aAvl1w7cl/7mstha/7xXgyn3lb23vzPyvrf5+A+lC40bYew0V5a5VWVZ2Ha2l2nLcQkP5SV9i58Wx1kLhyuds7HQGUGWXIW/sONLAZlEYl8WsXSuPue8Z7K1qrG61JZAG8puJX4AQS1ybXy//7fnw8MQn4CLPlRg2CHDAliZ1yAVO1ha3gm+WFS+TVEWbwVOYTi+BcxHY0wO3Ejqpr1T4ddFLC+GxpGYDbKBrwA1F3ErKrouKiK4kZAIWPlUjL59Buo6LieUntVGhpESss8DVOPH1bAmdIvRuNwR6qtaZptw99Yg1P4TARfz7FTyTpK1t0a2WiZXOHUjaL9yd/sDEJW1x2cbau8rGefgN2hukwl/Z/YIa108frD8AIlRj/iTdgP1O0p/aJk29eyu+unb8qlUvLT6ZarcGWzRdy+UkG24LMYTIECaX/wz4eLLwjTa0273t57U06WkuWN7SzQhRMCl//g1gUSA4I2hg6VknNcxvPQzW2m+JHI6dZhUrwT98mnqov+Udvh80WxV1xrwFcO1JuKOq/CxZey5MVlmQ0HTNgBfnaO6n78BwdH0YttHQ+jFYnXOTBBfYT8AkxMDG4PAkEsuemybJA9Xj5bfS+Cim0uLPb26PwkH0pavRCU4LqGhCGDWOlwZQl2gAMmatYtP1lgiBFoQhoLrPAndn42vD+y5Tr2+5kFBTj8G0y40uHfs5jmB4QmwQNdoAicug4i4/IUT5inQ15TUV+Vhu92wI9oQr1pQpZkHCbhHOOKECAU7dfGk/GjY/Ap0yn5ZOvlwQhi7ER1T+YWyCh8/PC8h77nx/iZ9/wRyoe6ys0/7jPEg9GBs5TIpXZnl/JS0Lf2ZPwYATMTBMGDoTsva/bxHHokCklBtfu53e/3vt1+9xao3/38rHP5WRXhH9ac8H7fDp5n63hArSzynhtcPZ+QH+LVvxcK3dbE509BnSRxx2zdz85LvcBetPb77U67n8+nzZTVmG++7+PHEPwodlL83j+RDse9Hr7ghA/ZxMmC1GrIz+O119A48uyZVJuFXjTfa3xfUHvAYKL8+mNy3nOMek2P/1S9TQMy/fo8FZvLj07B3yD/GPNwAVGE/EAcDMG1ozraARH7cSf5UK02Wb+EH3W4AZ2I6JHz82gAdtBXePVGL/VX/luxKi8OHiSdxbdLZCyjHz1FcFkqvJMsgyClopYZ7f4oP5TfPOM5Nxvnh+rgzh1gCBRMiO+Gj/Ljr5Dx7cuHsqKzjUr2kfkBs0rZ99u+mcr3Gy2D1wbQlswB0+W3p4R7nNnn0PPhwlR4ztD3M5aVjn6f88vm6xdLblytb118fH99zdtIA34I26s4kIOBQhn8d67bcP+qU5qUTZH/v38fvz5RH5Uf/qF4xV7GjJpWdxCkkgXWTSIrZSInsAaDrxE5GeOvZmifJSqCGUa8HqhYrq+TaTsw5d+FXievPkLmjRm8qyr8Bgf8UBzLUuHlmK4nINm/RusECYcIj1BeSex069j3IcOA0yEwUB9VfphRbViZdDSa++z9xGlUgOlY76My86b9yWbOikYzBXlaVaflBwhNrmu+6kSykKZm+dTjiB/ENT+gXWJ8LSU1eEEWHgQ1NYnpV1nfxSVGEREKqMqjyk/sxjKBHeCnSu8tBoxulvIACUuh1Vaz8bnQms4D5XdmNJ3uUWNq0nWSHwh5ycYx7gijRFzb53CVSX52uMV1IaAG8Vzz0VrbAwdqkOSFLwaRbW109uPxE9tPIT0oPzexe6sBY1pHvWq9e9Npv0un8l9adNak35pAeqZ6j/zo5E90yIpS0eJne2v/Bpzbk/yIfr2aTWIKco7FH3dXH7xZ+dhVICV1/ZM/9k7x7D37UfmpWul0FCwp/GVatc2Wh79ZnuGJCwulsRiw0twsdjq9fso0gVozlerN8+OUdFPAT6o5/dy0fh3YPJ1Sr4IkddK/4wnGiRCJUyLJpWN8dWVv8G6xExfzde1DeWDmhvHP44DW22muX0BTOpPJWVa707ltfN0codhoNG5vO539vmXlzEw+n8+B6YX/TTPd73ytx4w5nQxGixmUn3v4YYG9hYB8uJJ1ip8gYlbcDxjdVLAGVhmE72wHoqGs4p6y4Uq9R+aHUb1++y3FlcwCkoClnJnKpHIplI8RTDMHIhYVRKZSmRxQ0wBxw+ggMWcbTUpuUL9S9bv1i22IcO+QJfSBBEzxI5FD7EoqykmJkTN8TkyoI5LHaJUr6yxhPBE/GGZRWm0WO710BmkwuTniiHIgKcBa2gTRyWTyKetd+7bYrHo8AYVMFpepzkYDlHZyeKp3Dz9/8HDmOiaPRvKn9UuGHJVXDMtMvubO+4oEI/yHFQftenmsWvDY/Iyu2wBP1C3c3LTb7V6vD0Ca8N/+u1673bm5KXSbdeTlh+BZyPP+dB1gih89ztXrw7gWTusX30sZGwKXQW0j6FzAp3LG9yOaqPQ+DT8QQctysCkLrnKn2GzzAIzpTNTiaFDVkWVRzLoHXa5ezZlAfJKfksOX1v9nfKfbafnRyamGYZH7ge1g6dndHVhydu7ikP8/wA9qCgNesCAXhH6y+AezD+xRYv6ID7GbS2akYgZeH6THbEP8dmf8nFzFahaEw8MFUzP+CyKkpMY7OifsOIgUpWAx7DluXaA4/wQ/AhLjCcLffBd4gwYkqFa0Pu9ZMWYl+IkdY7dafVXCXrsE2XuClUR9eVy/2EcVYkBl9VRzQFyU4Bmw6B/sbNZRKiuED4yyBMSiO/aj56cjyDRhGEz+u6UlSuoYPJvFucvohPwocVRR/VpU4y/BxvMqKVs5sSPT/JA9n/e4VnGrgmHjBOzPjuZgceh8MJ7Aynx19ZPxI8nE25xbtvkp0Cq6vMzNvBprUKEB/eImbLsihvIPxdRBebuiTudfgE9ahB91gJ/RwA0F/4XtsUjlrShWJ/ccEKgn0y9kp2Z9/aHGBJppIpLvKUCwWO1DcppqEDJnlSFl/xb5lLCyGP/wguDW1eHh2yO3Ago0o1/g5lTsIENmnx1YZ57slF65OEsdqezurB3ufTiugID5T6VfYIKLVmY2Yplzj4AE1ojorCrKBtBjWhmrsOBcwY/j8gaNzi6CT9yF9FJzwY37F+eQY07yw94ORkOzkGaM4YqvuYKz7Qp2TxXVfsXN+5PwY9zmIWuoy9K9k+3cf8leq0Wk6dgZbE80l87NL67y5//kQ3ou335cggQTP/Tg5iNZG4Lhy4qSneSHrPgBP+rxxJcisS1fDPVjgQMkUXtf5sv4noSf5l8WZKn97r0hIPVazc3ONyttbYpdyMafK0Kakqp5i/s7l/xeV//DHzFyEPfR5PDpC9ePbzDIJ1xVneSndKIK+HuTb1Y6911OELahNWWPkZiPL3sCfiCjtDCXN639WuF7HXOriXuESI9V69+7t1/6Vi6FeQhIW83Deix/mcwwcPycM/PtmaxrBF3EN86oYxPbewWqpaF+7a5hOHngvDp5dTLZBFg/fsVxnJxyiWzjI55tV3z/ZA8CISbH4WXOE/R3DK+XAgHCuihmqJm8GbX6vV77c61W28eUAwUjn4FMNRodpGbpDIqb2FQKyfxvNGO2QbUWm/gEE+vshuNnQCUrr13t7FyuJINmbdCOHztrmLzC/U9Tz5Ibe2c7V4dlXvQdWMTH778z6n0W2SkmliI7TZu8jmHmcmme4FsQ9OExkbzmMplcr9aE1ITfDq12/rJqdRkkafFWmiy5KsaHhi3GxHDDQMbLycguhUBxciqTBUG9PG0cec2bn810qkMSgIE/nP3YK/Tx86f1z1aeiwcQwRmxxM9CXtKcG0FSLpWyeo1mVUfF49Uzr5D+VkS7s7g7RIeuSLkeSzyGU4I0oQ/+mVAjmpCCrCeYbZ14ks+5SsJriE4eZU+zORF8Pl6z1jfzqZzJRcSKjoHTBOKUy5vWt8/Fuj4iAmLX7pdClc5WHsfBYpSUXYjoslN2dlnA+L4RstcsdvZ7aG5ASjKpXC6XwQJZCssd+53GZt2LcWmjg+wcLHS1avA55DsJoqwUd1UH3XRsKbd/wQHVoMqhe9VWvbnZLXJsbjax+OPxwhQKMjOoPixygIU2UHZwou2Od5dI6ajiYItKO1zKne/o/Xb/wbeFNvbgo606TsTx18Ov3p0GM5J7tguRsaL45yE5MwDTzLdcggx8fVm/WkSWxMoFevfamsBC/RyAkrLqZiOac7q0m/3iBB8lXrEb+4Ec/gHvv6LZ/oe500PLAWpAEF2IRo37t7t+yBZklJwelR8ger8MWMKo9yAybN5DD7j3HygTzZ4mlVB4llS5CF6518f0It3pVgfTLjM0eK1mofPOqlUxRGT6z4gDJRNjX0sHSlp5kZ3mTOtdu1Mo/heiwio2wrxqtd7sFmvtXs6EtDSXzlk1kCHDeElb2TFi9LHzINJ3HM7I5zHDMLHgYebhARATDTJUK2eCDL2oXTQhoWr1MkFWOkpQB/m76MWLR2mLDyrg6M/LgndrmsHtL4QVVH963ery7sLyM5iYBa9+tkT1dCE3OM0R7RWqvEn3IhRsRBBlBuFFoBSO/MwAqEkBN7VNrIQx+ffdiFVnYvwA/HW30OnUipNFda+1Wev0o8FsFJ8MQksd7bdrhXp1VCGeZ35wj3omzR+hXhYwrNMSvfX1m5XPt782656XmF6SQnWv3tws4Hjd7W3ja7fZbHlMzEXd+d4gguD5l1uysBRcv7XyGavWjIkuwkTJigYjzjPnYfX8HoIgx731ljwQxKF50J1e0ROleUYnR5kkPgOFCwZw7QgLJsIJ7kpC5Tv4oXzbAvq5s5T1UwHIPlmhb+aiZoGRR17hyxJgs5net7zl9fyU1PspCHHMTexYPLadAD2NdfKNJU7TKc5u47xz9Sm+U5F6RSt1s7T0QNDSNE2RI/SajFsMbnUfXpihMhu4Nd4/+6v3nQqbtozfsiuT/ZxIqCDD7BVawlPJc73VPRBrjqVgTIpVm7f7EC182xQrOZisw/v+AxsYPCqMBGnkzWHKmUlZXwp1j9wf1cxg8HJKvdb3Qq1tYbLfr7UM/HIM/rzhtZav/GFQVrD4ggKeS1nRXCoPYfFNt9mqevoPyhCOQPMGYqHRafejvARi5no3dd5Y5e1zUC2vs5xhEK0W960Un+EJ5g7SwBLcofUOJ+ULhe5ms94CVIfFsWq1VW0BH//tdguFm0673XvH52AyJi5VSWWi/Vq3FRgbitEzSM9mtLCc1VQcHYzVNxuQqGfy/A5NMa3Bp1dyORP+T8Ft5warMHAoCNfrZLAbj/MuaTEGlI7CG5jWfqPJBzdk0RaVcTaDNr/l9+n9a+5+QVAm8TW4OE5U/b7ZwKVLUawQplJpvopnVOQZW6QiSmbBDAcwmDOj1rvO7WadD5pxUz1MUWi10M/nPsuUsaVMU6eNsVj31rjt7L/jMgRk8bJqAMjf8QiOcyBF/f3ObWNzfLEK33sDslKeedBWsW2C3S8aC3fhWFaA2Q1K8cHkRuG2BrjhMxxdtEpokGa7qxge8C8dpl690bYyoKG1KjGWzbffCRluMjH2lWfBD/LMCpxg5cpkNQT+GNXvjZ6VyuRyKavWAmM0b+HckoLfiBRM+bHBzYuNCAdKEixzGmF4NvOqm4X9Po50mqmc1WnGiJzA4HC5a0AjUH1i6RuORwkKgtiY8u/MFRkEHa1pp4ZXBbPVaQMtKXR6mWjvtvmjS+iWCFTSW8X9XhvcEQQ+nseMhdUJnFH0cLKseCuW7GYCA57jbj62aG+K5YaMguHVi513ufxfYEEsq/+l06nd3jYAX79+5WuYbz9/+YJj0LjSGRercgeXyaWj/W+dYrMa42sPjd/MZXHQ0TwGrvsv1DrtdxYOZ2ZwPXf+L/gDP2Q44KjJo8MeyFutAGmJUCg0SDLfoOw57+QfAjXA0UNC0WpubnYxpRiiK3IPcPP6jyZrvxt0uHMdZw8WpfR04Mqkn6+J/A4INmcBXZEHI60SzvYTUSgyuFuTdEi05q2QCxEiRIgQIUKECBEiRIgQIUKECBEiRIgQIUKEWIT/B4VPUXwJlmJLAAAAAElFTkSuQmCC;" vertex="1" parent="1">
          <mxGeometry x="409.23" y="1415" width="81.53" height="50" as="geometry" />
        </mxCell>
        <mxCell id="7NgcQbeyCjX-3y8TtTdY-42" value="" style="rounded=1;whiteSpace=wrap;html=1;absoluteArcSize=1;arcSize=14;strokeWidth=2;" vertex="1" parent="1">
          <mxGeometry x="409.23" y="1415" width="112" height="60" as="geometry" />
        </mxCell>
        <mxCell id="7NgcQbeyCjX-3y8TtTdY-43" value="" style="rounded=1;whiteSpace=wrap;html=1;absoluteArcSize=1;arcSize=14;strokeWidth=2;" vertex="1" parent="1">
          <mxGeometry x="409.23" y="1495" width="112" height="60" as="geometry" />
        </mxCell>
        <mxCell id="7NgcQbeyCjX-3y8TtTdY-44" value="Amazon Linux 2023 AMI" style="outlineConnect=0;dashed=0;verticalLabelPosition=bottom;verticalAlign=top;align=center;html=1;shape=mxgraph.aws3.ami;fillColor=#F58534;gradientColor=none;strokeColor=#B3B3B3;fontColor=#666666;" vertex="1" parent="1">
          <mxGeometry x="284" y="1443.5" width="60" height="63" as="geometry" />
        </mxCell>
        <mxCell id="7NgcQbeyCjX-3y8TtTdY-45" value="" style="shape=image;verticalLabelPosition=bottom;labelBackgroundColor=default;verticalAlign=top;aspect=fixed;imageAspect=0;image=data:image/png,iVBORw0KGgoAAAANSUhEUgAAAR8AAACwCAMAAAABtJrwAAABHVBMVEX////rLS///v8AdL3///38//////zqLi3rKCz7+frtz8/nGBrjSkv8/v////v//f747e4Aa7rkHyPltrcAcr0Ab7wAa7voLi8AdLvrISIAb7oAaLvjhIToxMPqLTHrJSftPT+Uu9rnAAD71NOxzebt9PafxeTpb2759PTnfH3w3t3qDhLsGCDokpHklJXiUlPf7PLnoZ52rNbP3+yMsdO90uJSnNI+i8rZ5+/z2tTtwLztXl7nZWHpMzjnP0LqtbHoenfojo3lb3HlWl/prLDtgHvqUlbu3dTy3ODpn6DIYWK8amjViI/5urrpSElLjcNonM2Ft96ow9j6yck3isUug8b1g39qqNgAYrxUn9Szz9yStNZFj8t4pcnF3/G6LEylAAAX90lEQVR4nO1dC0Pa2LbehL2TYEgAJZCAJqU1iAQr8rBofdTH9NR77why4HR6Wvv/f8Zda+/wBm0dHUvNN9NWAsHkY73X2htCQoQIESJEiBAhfgJJJtHnvoZfGWsH7Lkv4ZdGOR7ycxdi2iFhJFSxBaDsZFeSnvsqfl1Q8t4/YFR/7uv4VUHJkb/DEqF+LcRR5YKxkJ+FeO8ey6ELWwh24mrJUH4WIqYqWjn07wtR9iMhP3fg1Fe0JAkN0CJsuRElRsIIcR50mSWzETeeYInnvpRfEmB19rSIvc300P7MQ4LFrt2IthbGz4tw6mcVN0loyM9clBwlYm+FzmsRPqwqqn343Ffxy+JQcxTlOhSfeZAMUj52IxH/NORnHigpxW0l614zFgaH88Deu9mIar8hYfI1C0rYlqZmVXud0LC4MQOZGVuVrBJxr0vPfSm/JkoXWlZ1VHvluS/k10QSTLOSVfy90PZMQmdgbtjBtR3JOmple9r0SDqkqvQFVzsSTCdsw4W4R1G1LcaM6efBr9HEy42IKNDz1o8g7IuSbNApUWGllY3Si60GSRgVbvsRJZt13Di4LonPtoCzl3gGX1rZPvr3i3X33LSU47aQnutRU0dKEMYIK58d+3uxZ73EZ0UClOvQdRVgR7HjoEVs+ASIzun716+3S4ROW6SXA3BcO5qqOCg9RyV4NKwasvLOseZfHzKA9DKNMyMGSW5pqFpOBD0XGiMm8finvO7atn1WImCF6AuNiBIyKb/SVORHeX02dOyUkeS2a6vayQsfs2MMTE8kC/S47ilYGT7xA+yUdnzNcbUzhg9eKkBl2NWqm1WUiOKerBCIesCZAR/66StbydrHG+wlV+gxpdjWHCBHUSq7SZE+UIiVwSCpEUU7Sr5QoxMAkooPPrAD2lX5MOglS4ydOqvAGOqW/nIzLkTsXHMcVcmqwMVwVsw4811HUSun5MVGzBxUYucaGmbgYocRkXFRVtrSIFJU1UMiS9IL1i9JZ9u+wv165e3ARRlYIFMiWXf1zWwO/7Igsz0/ksXAR1sfKZK3q0UcxbVXiCG/3HIP0sE2bFdB04x9ZBYcZUeVbESJaKBcWDJ75st8NmAQWDpxuXKpJ8ngINBx5QM7ir3Dpus/Lwxgm9c1hRtnbWNwUCIrNsSKEfVjjL3syV7QnH/5Ck+6KkPjQ4kRX81i72uDGNJLLRUKJNiOHYmgrBwnSUAFZYc8T3U/ouy8WNuDgCQrzqUnq+0MqWDkPbdIqzvPe3G/ACQpuYq2x1H9sRHeMq/PK/7GXae+CDDySVTE3N0xRbr0Hc7Pyou2zQIrmoicr8aO/cHVywnlB3L0A9Sl7JhzB1y4ooNx+WzX9atAIkmRefnl0UEWd0W2ehTql87iahbd1zg/u0FArZTZ3xgMH0TedInXbkg6gfgnqzjj/JAt3gJTI/YZ72A8ELrBkhzLPEHEwJkrjqL6b8YOvsXCTwTyU7f8NxbmUraiKZD42vHlrY9QiZJd24mo/trY0Q0xn+Ao7nvKHsyPDr4ReXbjy92SPtQiqoJjhoMOBS0dc6ONFaHTh+cXVMQOirrk/LAtO5t1j0cNnAT7YAf8KEr5znPvwm/DT9l1nQgEyyNXJYJGvDn34uH25zfhh7C3mqPY50NNojqIFFgfEVjvPHTtzu/Cj8SMj66jrH4aEgRRte3wMQ4lq66ukIfFQL8LP4AyBDz2h2Goo8tkXbgwNfvw9QW/Cz8JMMhr4Im1wagzlQyJHqs8BoK//cuH1ed/F34IhnJ7muLG9bHZpxUbnJew0dePxk8CpxkZThFB5peAV0i8b011PlaUmFBkvBQ8Kg2vCUJVyseScJALp5Pw1bqs86Et6SmbUAnGtjVF24MbGBxil1rW4aVFVfv0oDed5Udi4iYYB+Epmkx4FZxzMLULkxQcHEKW8ZMaPxsphB+ZJD/pGiPdkNhRRan8azSRKbHtCjfREUV72PrB+fpVWrk8O7/Y3d09Wj+F9Jd/INQgB284xqMtkDBx8E1s8IbE+LS2858jOPtiey+o3ukrb5LJRJmSp9yhKMFI7MKGTAA/Yfy9DET4whYKVnlYHWiKHxysLl/FV33Ndl1XdV3bf31xiJqBv3HntQ94HR9pCZVYUuMH/aAvl1w7cl/7mstha/7xXgyn3lb23vzPyvrf5+A+lC40bYew0V5a5VWVZ2Ha2l2nLcQkP5SV9i58Wx1kLhyuds7HQGUGWXIW/sONLAZlEYl8WsXSuPue8Z7K1qrG61JZAG8puJX4AQS1ybXy//7fnw8MQn4CLPlRg2CHDAliZ1yAVO1ha3gm+WFS+TVEWbwVOYTi+BcxHY0wO3Ejqpr1T4ddFLC+GxpGYDbKBrwA1F3ErKrouKiK4kZAIWPlUjL59Buo6LieUntVGhpESss8DVOPH1bAmdIvRuNwR6qtaZptw99Yg1P4TARfz7FTyTpK1t0a2WiZXOHUjaL9yd/sDEJW1x2cbau8rGefgN2hukwl/Z/YIa108frD8AIlRj/iTdgP1O0p/aJk29eyu+unb8qlUvLT6ZarcGWzRdy+UkG24LMYTIECaX/wz4eLLwjTa0273t57U06WkuWN7SzQhRMCl//g1gUSA4I2hg6VknNcxvPQzW2m+JHI6dZhUrwT98mnqov+Udvh80WxV1xrwFcO1JuKOq/CxZey5MVlmQ0HTNgBfnaO6n78BwdH0YttHQ+jFYnXOTBBfYT8AkxMDG4PAkEsuemybJA9Xj5bfS+Cim0uLPb26PwkH0pavRCU4LqGhCGDWOlwZQl2gAMmatYtP1lgiBFoQhoLrPAndn42vD+y5Tr2+5kFBTj8G0y40uHfs5jmB4QmwQNdoAicug4i4/IUT5inQ15TUV+Vhu92wI9oQr1pQpZkHCbhHOOKECAU7dfGk/GjY/Ap0yn5ZOvlwQhi7ER1T+YWyCh8/PC8h77nx/iZ9/wRyoe6ys0/7jPEg9GBs5TIpXZnl/JS0Lf2ZPwYATMTBMGDoTsva/bxHHokCklBtfu53e/3vt1+9xao3/38rHP5WRXhH9ac8H7fDp5n63hArSzynhtcPZ+QH+LVvxcK3dbE509BnSRxx2zdz85LvcBetPb77U67n8+nzZTVmG++7+PHEPwodlL83j+RDse9Hr7ghA/ZxMmC1GrIz+O119A48uyZVJuFXjTfa3xfUHvAYKL8+mNy3nOMek2P/1S9TQMy/fo8FZvLj07B3yD/GPNwAVGE/EAcDMG1ozraARH7cSf5UK02Wb+EH3W4AZ2I6JHz82gAdtBXePVGL/VX/luxKi8OHiSdxbdLZCyjHz1FcFkqvJMsgyClopYZ7f4oP5TfPOM5Nxvnh+rgzh1gCBRMiO+Gj/Ljr5Dx7cuHsqKzjUr2kfkBs0rZ99u+mcr3Gy2D1wbQlswB0+W3p4R7nNnn0PPhwlR4ztD3M5aVjn6f88vm6xdLblytb118fH99zdtIA34I26s4kIOBQhn8d67bcP+qU5qUTZH/v38fvz5RH5Uf/qF4xV7GjJpWdxCkkgXWTSIrZSInsAaDrxE5GeOvZmifJSqCGUa8HqhYrq+TaTsw5d+FXievPkLmjRm8qyr8Bgf8UBzLUuHlmK4nINm/RusECYcIj1BeSex069j3IcOA0yEwUB9VfphRbViZdDSa++z9xGlUgOlY76My86b9yWbOikYzBXlaVaflBwhNrmu+6kSykKZm+dTjiB/ENT+gXWJ8LSU1eEEWHgQ1NYnpV1nfxSVGEREKqMqjyk/sxjKBHeCnSu8tBoxulvIACUuh1Vaz8bnQms4D5XdmNJ3uUWNq0nWSHwh5ycYx7gijRFzb53CVSX52uMV1IaAG8Vzz0VrbAwdqkOSFLwaRbW109uPxE9tPIT0oPzexe6sBY1pHvWq9e9Npv0un8l9adNak35pAeqZ6j/zo5E90yIpS0eJne2v/Bpzbk/yIfr2aTWIKco7FH3dXH7xZ+dhVICV1/ZM/9k7x7D37UfmpWul0FCwp/GVatc2Wh79ZnuGJCwulsRiw0twsdjq9fso0gVozlerN8+OUdFPAT6o5/dy0fh3YPJ1Sr4IkddK/4wnGiRCJUyLJpWN8dWVv8G6xExfzde1DeWDmhvHP44DW22muX0BTOpPJWVa707ltfN0codhoNG5vO539vmXlzEw+n8+B6YX/TTPd73ytx4w5nQxGixmUn3v4YYG9hYB8uJJ1ip8gYlbcDxjdVLAGVhmE72wHoqGs4p6y4Uq9R+aHUb1++y3FlcwCkoClnJnKpHIplI8RTDMHIhYVRKZSmRxQ0wBxw+ggMWcbTUpuUL9S9bv1i22IcO+QJfSBBEzxI5FD7EoqykmJkTN8TkyoI5LHaJUr6yxhPBE/GGZRWm0WO710BmkwuTniiHIgKcBa2gTRyWTyKetd+7bYrHo8AYVMFpepzkYDlHZyeKp3Dz9/8HDmOiaPRvKn9UuGHJVXDMtMvubO+4oEI/yHFQftenmsWvDY/Iyu2wBP1C3c3LTb7V6vD0Ca8N/+u1673bm5KXSbdeTlh+BZyPP+dB1gih89ztXrw7gWTusX30sZGwKXQW0j6FzAp3LG9yOaqPQ+DT8QQctysCkLrnKn2GzzAIzpTNTiaFDVkWVRzLoHXa5ezZlAfJKfksOX1v9nfKfbafnRyamGYZH7ge1g6dndHVhydu7ikP8/wA9qCgNesCAXhH6y+AezD+xRYv6ID7GbS2akYgZeH6THbEP8dmf8nFzFahaEw8MFUzP+CyKkpMY7OifsOIgUpWAx7DluXaA4/wQ/AhLjCcLffBd4gwYkqFa0Pu9ZMWYl+IkdY7dafVXCXrsE2XuClUR9eVy/2EcVYkBl9VRzQFyU4Bmw6B/sbNZRKiuED4yyBMSiO/aj56cjyDRhGEz+u6UlSuoYPJvFucvohPwocVRR/VpU4y/BxvMqKVs5sSPT/JA9n/e4VnGrgmHjBOzPjuZgceh8MJ7Aynx19ZPxI8nE25xbtvkp0Cq6vMzNvBprUKEB/eImbLsihvIPxdRBebuiTudfgE9ahB91gJ/RwA0F/4XtsUjlrShWJ/ccEKgn0y9kp2Z9/aHGBJppIpLvKUCwWO1DcppqEDJnlSFl/xb5lLCyGP/wguDW1eHh2yO3Ago0o1/g5lTsIENmnx1YZ57slF65OEsdqezurB3ufTiugID5T6VfYIKLVmY2Yplzj4AE1ojorCrKBtBjWhmrsOBcwY/j8gaNzi6CT9yF9FJzwY37F+eQY07yw94ORkOzkGaM4YqvuYKz7Qp2TxXVfsXN+5PwY9zmIWuoy9K9k+3cf8leq0Wk6dgZbE80l87NL67y5//kQ3ou335cggQTP/Tg5iNZG4Lhy4qSneSHrPgBP+rxxJcisS1fDPVjgQMkUXtf5sv4noSf5l8WZKn97r0hIPVazc3ONyttbYpdyMafK0Kakqp5i/s7l/xeV//DHzFyEPfR5PDpC9ePbzDIJ1xVneSndKIK+HuTb1Y6911OELahNWWPkZiPL3sCfiCjtDCXN639WuF7HXOriXuESI9V69+7t1/6Vi6FeQhIW83Deix/mcwwcPycM/PtmaxrBF3EN86oYxPbewWqpaF+7a5hOHngvDp5dTLZBFg/fsVxnJxyiWzjI55tV3z/ZA8CISbH4WXOE/R3DK+XAgHCuihmqJm8GbX6vV77c61W28eUAwUjn4FMNRodpGbpDIqb2FQKyfxvNGO2QbUWm/gEE+vshuNnQCUrr13t7FyuJINmbdCOHztrmLzC/U9Tz5Ibe2c7V4dlXvQdWMTH778z6n0W2SkmliI7TZu8jmHmcmme4FsQ9OExkbzmMplcr9aE1ITfDq12/rJqdRkkafFWmiy5KsaHhi3GxHDDQMbLycguhUBxciqTBUG9PG0cec2bn810qkMSgIE/nP3YK/Tx86f1z1aeiwcQwRmxxM9CXtKcG0FSLpWyeo1mVUfF49Uzr5D+VkS7s7g7RIeuSLkeSzyGU4I0oQ/+mVAjmpCCrCeYbZ14ks+5SsJriE4eZU+zORF8Pl6z1jfzqZzJRcSKjoHTBOKUy5vWt8/Fuj4iAmLX7pdClc5WHsfBYpSUXYjoslN2dlnA+L4RstcsdvZ7aG5ASjKpXC6XwQJZCssd+53GZt2LcWmjg+wcLHS1avA55DsJoqwUd1UH3XRsKbd/wQHVoMqhe9VWvbnZLXJsbjax+OPxwhQKMjOoPixygIU2UHZwou2Od5dI6ajiYItKO1zKne/o/Xb/wbeFNvbgo606TsTx18Ov3p0GM5J7tguRsaL45yE5MwDTzLdcggx8fVm/WkSWxMoFevfamsBC/RyAkrLqZiOac7q0m/3iBB8lXrEb+4Ec/gHvv6LZ/oe500PLAWpAEF2IRo37t7t+yBZklJwelR8ger8MWMKo9yAybN5DD7j3HygTzZ4mlVB4llS5CF6518f0It3pVgfTLjM0eK1mofPOqlUxRGT6z4gDJRNjX0sHSlp5kZ3mTOtdu1Mo/heiwio2wrxqtd7sFmvtXs6EtDSXzlk1kCHDeElb2TFi9LHzINJ3HM7I5zHDMLHgYebhARATDTJUK2eCDL2oXTQhoWr1MkFWOkpQB/m76MWLR2mLDyrg6M/LgndrmsHtL4QVVH963ery7sLyM5iYBa9+tkT1dCE3OM0R7RWqvEn3IhRsRBBlBuFFoBSO/MwAqEkBN7VNrIQx+ffdiFVnYvwA/HW30OnUipNFda+1Wev0o8FsFJ8MQksd7bdrhXp1VCGeZ35wj3omzR+hXhYwrNMSvfX1m5XPt782656XmF6SQnWv3tws4Hjd7W3ja7fZbHlMzEXd+d4gguD5l1uysBRcv7XyGavWjIkuwkTJigYjzjPnYfX8HoIgx731ljwQxKF50J1e0ROleUYnR5kkPgOFCwZw7QgLJsIJ7kpC5Tv4oXzbAvq5s5T1UwHIPlmhb+aiZoGRR17hyxJgs5net7zl9fyU1PspCHHMTexYPLadAD2NdfKNJU7TKc5u47xz9Sm+U5F6RSt1s7T0QNDSNE2RI/SajFsMbnUfXpihMhu4Nd4/+6v3nQqbtozfsiuT/ZxIqCDD7BVawlPJc73VPRBrjqVgTIpVm7f7EC182xQrOZisw/v+AxsYPCqMBGnkzWHKmUlZXwp1j9wf1cxg8HJKvdb3Qq1tYbLfr7UM/HIM/rzhtZav/GFQVrD4ggKeS1nRXCoPYfFNt9mqevoPyhCOQPMGYqHRafejvARi5no3dd5Y5e1zUC2vs5xhEK0W960Un+EJ5g7SwBLcofUOJ+ULhe5ms94CVIfFsWq1VW0BH//tdguFm0673XvH52AyJi5VSWWi/Vq3FRgbitEzSM9mtLCc1VQcHYzVNxuQqGfy/A5NMa3Bp1dyORP+T8Ft5warMHAoCNfrZLAbj/MuaTEGlI7CG5jWfqPJBzdk0RaVcTaDNr/l9+n9a+5+QVAm8TW4OE5U/b7ZwKVLUawQplJpvopnVOQZW6QiSmbBDAcwmDOj1rvO7WadD5pxUz1MUWi10M/nPsuUsaVMU6eNsVj31rjt7L/jMgRk8bJqAMjf8QiOcyBF/f3ObWNzfLEK33sDslKeedBWsW2C3S8aC3fhWFaA2Q1K8cHkRuG2BrjhMxxdtEpokGa7qxge8C8dpl690bYyoKG1KjGWzbffCRluMjH2lWfBD/LMCpxg5cpkNQT+GNXvjZ6VyuRyKavWAmM0b+HckoLfiBRM+bHBzYuNCAdKEixzGmF4NvOqm4X9Po50mqmc1WnGiJzA4HC5a0AjUH1i6RuORwkKgtiY8u/MFRkEHa1pp4ZXBbPVaQMtKXR6mWjvtvmjS+iWCFTSW8X9XhvcEQQ+nseMhdUJnFH0cLKseCuW7GYCA57jbj62aG+K5YaMguHVi513ufxfYEEsq/+l06nd3jYAX79+5WuYbz9/+YJj0LjSGRercgeXyaWj/W+dYrMa42sPjd/MZXHQ0TwGrvsv1DrtdxYOZ2ZwPXf+L/gDP2Q44KjJo8MeyFutAGmJUCg0SDLfoOw57+QfAjXA0UNC0WpubnYxpRiiK3IPcPP6jyZrvxt0uHMdZw8WpfR04Mqkn6+J/A4INmcBXZEHI60SzvYTUSgyuFuTdEi05q2QCxEiRIgQIUKECBEiRIgQIUKECBEiRIgQIUKEWIT/B4VPUXwJlmJLAAAAAElFTkSuQmCC;" vertex="1" parent="1">
          <mxGeometry x="424.46000000000004" y="1420" width="81.53" height="50" as="geometry" />
        </mxCell>
        <mxCell id="7NgcQbeyCjX-3y8TtTdY-46" value="" style="shape=image;verticalLabelPosition=bottom;labelBackgroundColor=default;verticalAlign=top;aspect=fixed;imageAspect=0;image=data:image/png,iVBORw0KGgoAAAANSUhEUgAAAVsAAACRCAMAAABaFeu5AAAA3lBMVEX////wUTNBMAA/LgA3IwA5JgA+LADu7elEMwDvRB7vRyQ8KgCIgHA1IAAtFACdl4jh39kyHADb2dJoXD8vFwD60Mv3r6VbTCgzHQDvQhvwTi7U0cinoZMsEgD29vT/+vnAvbYpDQD1lof839r719Lzd2L5wLf4uK67tqv1kYHyblj0h3b3qZ3p5+P2oZT85OBcTzPxZEv0g3CQiHgnCACqpZ7+8u9NPhhqYErxWz76ysJ/dmLyclxjV0HyZEp0allWSC17cmIgAABWRyLvOw1uZFJJOACUjYKNhHFMPRuLalcbAAAP8klEQVR4nO2de3uaShCHFQEVREVJxBuSu7nYmGqqqSdNWptLv/8XOqBVgZ29sCwa8/T3nH9OH0B8nczuzs7MZjIi1Lv9fn76Tcijdien1r/35A56u36TgG4vW82iVmzeXez6TfjV609NyzZk2TCPCqXarl9npQtNyy7UKl7tq+3W5qYuraTKZmnXL7TUcTO7Vqt1u+vX4ZL7S5VCMhrOrt/J05diNqBWdh/htstSVEpj1y/lWW0I7X7CdSYqwlYyK7t+rShaD662d3A7NorWg5vf7VsFfe3+Wm4BMFvP5XZ2+lKo1e4j3FoXQivp012+1CWIdu/cQh90CZI62aFTgBzCaip2srvXiq2RDLKVjMHOXgl2CCu3sEdwZwrMtryz1RnOIeyfW8Cxtdo7eiEyWh/u3lguB9t2JyBX8PuQHMK+uYU3jL+1qthbRl1jra7g2APNahdw9yW2gJkn5HL4ecLPgKkrYtmeNFt0ttlWcT8sFzO/VR/xtzyqqbHNnLaY4O7JVEzPQWxlfEDBKeTSY5s5LX4iuBUjprsdBC1dONvMicYE9/c+wM1LQEBBJiDrm6my/VRuoW+h3rZACI5X5HTZfiq38B4dznSDtChrqGmwDW6BnrDBbe4D3I4RXECo5jMplpAfSymwPT4LwmV1C6diPjxVVUuyJeuqmtMVozu8J14bnhALYntZ1M6C/3/KNqDthVvI5N23aeN1Up918BOEpYaqeLb+aky7Cv4L42yhuQ+Wy6xaeMomhO1yoavxuAXtM8EtKcLZrmIIEbiMbuHzwK1GQjsC2F6vwzNcbqH4aeDWddFsrwORL+2/0FSMyS1kP4vPrZiSYLbhoCKXz/0cbgFdwiVle62FQWlXIcvVWlpR8/4jMv4UA1o/arWJ2V4jofAI3KvDg9PT78dX5JXa732H65SAUG8ytijaqM9d6eBOQy8N3LTfcPsTaPcnEduoQ4Asd60v2KSFPXcL1c7EBnObJGlUQTRiy234itkb0+5AuOfErbQU3YLj5P/KcZiTZ9f3QFpdlG93SoUjA9ydWFiujOgX0/475BCIlntDhKsdsH5tdjlVt1N6GRZk2+p2jyylMBm+vPdrLIDfbR0nZb0XObYMBQsWFlNuw1eCA8XAvSMNaC3RcPP92cQwDUVX118/l1N1xTakOlbD1Vef6lg8ucKKLSZ/ISlbEloP7g8I7inJ5XpuQSRc9+nI1jFu0COMU9dd3t57xty7BbZktN5i6zt01xV5LVEUBrffKOPtjiTTXT4gX8D/rafMloY224TnCuTbRLmF9sTEWx0b2yq6FNgS2zMa2tYdeN8BLevmN2ju8ZSfdnnJbti20U3I7bClos22voI33lJvbCa23FqB4xuvtWLbATMTlkqTLdUheGPZMSfbxFMx1+A3WmnDFpfW7CtFtnSr9ez2Grz1hCETDx4FmdFaMeebEa3Y/iQMhemxZUGbbT2A935nYJsIbjsh2jXbIcH6U2PLhNYblMD63UummzVuuI6ayCFIa7bOWGaZ38rxf0k82x4j2qx2CN3OFiznt9xpkmFs+dWXbDO1ysRUcEuPNduuvcpjBt2zaqDCxxP+Y0TrOQVwgsu2h8YLF4hPr76lInvfHwvLWwnLhm1aXcN2109rjyZl8LfasK2tVO0AcPWf1RoqXDCD1Wo9aV/AJ7Dt/maLPHAdzFpKscqNkl9/UGqUTWiMmtdno0qn77YH+VBGuNOeQb/Whu1GVbSoOlb8tsdstQQ8jBuUPHBhs1Xkmbu+xHGnZvQHyJFK8aBnpsA2HtqkcJvnzC+2Elh9a80iINqFqOkqpBpSwCukwDYmWg/PDexzUxrQgF4HHlq0rjk/j8K1+vinztEfTDjbuFbrS2uBiyxWtxDTckuAiYHU8lLELeQMfLS8kT7b3lV8tB6e9UzsJDjfPcmm4RaAPhLKDLyyHXWi8gj71C2w5UIbmOV+/8GTcRMHbjQby5eJscdodlFOwg5nqbPls9og24PfVxxw47gFKPkCZ45u9FoT63HTZsuLNsi2GN79vRXuFoDIFXZ96UQLHvHtJlJm2yPnbTCyjWyt34p2C2jkKoevqIk6BQk7mqXLlttqI2wju7+McJndwiMCQcfXho6icwqsiafKlt9qo2yjlsvoFtj6DTpoVFD5ib26EnUgBq5IJE22SdBG2aJuQSs2m5QsR0a4DrrpjZmB+UK2bOQ3zJUpsk2EFmEbdQtXNwenJ99v7sjV60xwnTkSqInDVsddmx7b3o8kaFG2nuVCQfNb8qKPBS5gt3oMn6DXMVemxvZbIquF2OIS8S4Sw0X9LaHPwc/oWLZ1tgmtFmSLg0vOZ2KA+4LOwSTsHCwaUcBPcNNiyxGeobPNtn6Ae2nnZLjUqRjQuAc7sXLR2gTcEi4ltl9YdmXjs822QJ9L2aikdmcC+khgBzNk6bDtOdi3pFaLY4ux3FtywckVcEtQSHDLUxcuwAVCD6u9c0TpsCUPL0nYZos30Adek+tNKIabV9HdMvUZurIGbH0f4QJh6bA9Y1o2cbGF/8DPyU4B/D0CQv/QvSXBCzqctYEOP/CP4Csdtg+J0WLZtsAPJGeLYdKgNrqHunnJw2ibjg6UP4oPjqfDNjlavL8FP/BbMofrHAFsJd18cje2W60UwARFE9soJR22d+mxhTH1iM9qnYE3BYTJPdStbv2t0ul33qZSF05FIkTM0mFLHloSsYUz8ch2q13S2A6weZ2LtBpDhlupSZtMpa2xJdeDJWGb1cAPPCH6W4ZskArcP5EqnXCsQDpsew+JDRc7BwML9W7I8wQq2kxmyFdAQmhUl9a67IJcspSAbQv8+yZW8TAFGgdc6bdAfkjqbJkarnKxzUJdWomFJhptBrZUuxsfro0P86bIllBWmpQtWmvS+0EwW402AVvJRVLpaDLIJwqkFxtPCBfLFlj1ctSwQmrr8fKbzSfy81Lc00kGF88224wklh+LQZvJ5OsxnK56hM9WWirNvchEcAlss83rALBb0j493O0Cr/4zK1xZcmkPS3UPPcmARmKb1R4Ol6HG3ukxqeVKXLTkwrvgdzff6QeMJGBL2K9bKYHlEtlmW1rr7uvl9dWDRprYxnIIS7SEWtwNIHk8o7VX9JWELcO5O/yWS2br4/VFfgQ1jBDVKNSWB6qKyumy+afCdihOArbqhKEJBjdcKlv6E+KjDX1L5XFStvz+FMvIeU5VZLurTivMp7Ywsh1ALfUtlp+PF25itszz2rVGoW1Gde44ebczqg8bBXtsydJw9sbWU2WlJGxtQq7/Rpxwk7KNb7WRoqXkJ98wsgWDx+qQ6SP44CZkGx/tNBwJI2QtsYqVLXxaAZPh8sFNxlb7Ly6IUhhtzk5+3isj28wrOKdW3Mhl7Vn0X3zRDyESzJZjGItMvhjNhihWttBOqHepOWuvfl+n1p8qJrzG5oDbXEcNDmLHK+OjrUTmQULOdWRlC1VgLSzXKjdms9JT/fWobPgbHwb4MXHhtoqX6xyP24eY2Q7x0brR4UQVcfQgY+0eaS2oKkqgSZkJD6/x4EbOKSP2YxSAFqiUnjfqs/fKfd9t1wa8nhdCJgM/Wo3QPChsyO/wB+EP2QTQRteqcfbfNLiXEElvKAVV1ZVl8b7VPRobhXn9pfRW6bu1gd+akfrEnpNvgx0Z9KnrPSB8MXgENST1GfPJ7HBbD0jOF7kfY0K0DnxOcVA5n7UsG6bVNZXC8Om9X8MunPqd96dhwbTgDTjdtKTnl1mlH7gfdwAiImwuBLNbgHrUUdrabdDGdghQ2icNtK7Ydu651If4Or9CfRwx94eagpI6ioWEP/6M0XLBTA1KP8Y12vhWC2TZMxJW7HEdxeuwgQqNS6T2QUERVmtscOEeakyGy4UWe24mg3Rbjnb85WHbBnOmAJXx8xcmuEXwVnIGwl+0HA4hGVtPshL+Q3WgXgyowvOpd7aQvGQQljQMs6kWvFxlWJ0xbpYjYtxrwGNqBB0Dj916XoFtOFNwdSu+6JYLJ3dQspKSoGUfSrDfuBD4U+Vjm39m+ONRrTkp14QOF5MYR+3HyOdrFzSQ0pu40gPbBHxsM06d0sJUNcZzl/JNaGUmmD6itH6M3FabwZ1JGkfyJiLJydabF0s29jdWZfu5w7AOp/hcvn6MSdB6CyO+RDsQFddYtryzM7GAJF9dNs1H1p0kCly4HyMpwcObW3A7hIWqRlK4+sua0C/09ABAYAPAXns0GXctW1YWTfX9deBYrldctr3PhchuAezH2COWUCSyWl/5x9jJYBGtk0Ud9NALUNhd+Gq7X5k9TetPs9G9G2uDbiHyQSOQUzgUkKlIVP9PMrgGcQTfpohwgX6MxGLAogC0mQGhuz2LhETTxYgY2EJz6EkrXiFoa7hGocyyBLyFIN2QLDcCt0dKAi1SC0UYFEGr+pGsmHbcFbFVIUhEt1D8EoiOn5L6BQhBmw+nJ+mPpaf6RC0fdS3LtA15QZqGOnk+g0ARLVfL3vydih2ckTIVhaDNNEJTsHWrOmdQa7v9+7fZdDhZBF1t01BwoVlsyfRORISb1Zp3l8fHZxqxIU0RPrAgpkbhdZkNWqCTH1Tbbmf2mINXcWxZRlsTGW621dIofZTEWG2kxF/G7PitlO+Afdg/GFsaXJrEoI2eiUXPqKlCVZL4vow70mESuGIcQqY2Dpstdk9qIyji+7H8ra+b37tGG90uYxnva0CFapk5L3dr4nYLghwCklrEMk+FGuaO4+b/b0HESEH6VpvpRZwnC1ugwY06F/Q+QnXI4xaEoc0MIjtVLH7zHd3dwnay2q04fG5TGFrk7xvbpg5/y8JNu8LeSKhiuwVxVgu0pTBp0cIBkL/FVFizE8V0C0X4UBg+5ZG/b3tE5NTPASEzA9eodfeKBVegQ/CFBghkqYIb0Ab3f6Adw5wcY9tl27pgdwsiHYIvICU+J3dfR/fuYJkN2nN8Ddr9Sl0vw+ceUv3ITsXcKUSoQ/AFp9XkFMPsyq/z+bwxkVRVLvtbhLiOQPpE8DsJ1gWbW2iKRpsZjGFgC8KqL1roNmewlPfuUkxuQbjVeiolyrWTPmIoARGDW0gDbWZANUyyxh8tAgaJ6hbEO4SF+lBFLatUEaVoWxDFclNCi5aXxZAx+XjxL1hEn5uKQ1iqwnnCvGqNPmD4C6NzvFtIzWp9tSccSUs5a/6RNnepwrqFVNF66qjxjkPPKeZkPzztRpg6vRQdwl85nWeLObtGsQqzvbLZpUC30KS1tRaidun1yKDxzelyWZnFydv8QAKOa9gOWl/V+9mrYZt+Cqy6yVvKeVL9jFjTNvR6pb0/A1hUiFvYHtqFnJqfAjsd/plIykK6VJg8Dx+n7xUXX2u6J4pY7pbRruXk84Ol8kiB8/7q/Hdr92g/qw6yq9xFTYt/BPc/EfXtuFjUNK3YvAZLS/4pkXrfLw4vzv+RDet/uDWovhI/dpkAAAAASUVORK5CYII=;" vertex="1" parent="1">
          <mxGeometry x="417.36" y="1505" width="95.73" height="40" as="geometry" />
        </mxCell>
        <mxCell id="7NgcQbeyCjX-3y8TtTdY-47" value="EC2 instance" style="points=[[0,0],[0.25,0],[0.5,0],[0.75,0],[1,0],[1,0.25],[1,0.5],[1,0.75],[1,1],[0.75,1],[0.5,1],[0.25,1],[0,1],[0,0.75],[0,0.5],[0,0.25]];outlineConnect=0;gradientColor=none;html=1;whiteSpace=wrap;fontSize=12;fontStyle=0;container=1;pointerEvents=0;collapsible=0;recursiveResize=0;shape=mxgraph.aws4.group;grIcon=mxgraph.aws4.group_ec2_instance_contents;strokeColor=#D86613;fillColor=none;verticalAlign=top;align=left;spacingLeft=30;fontColor=#D86613;dashed=0;" vertex="1" parent="1">
          <mxGeometry x="180" y="1345" width="420" height="295" as="geometry" />
        </mxCell>
      </root>
    </mxGraphModel>
  </diagram>
</mxfile>
